<?xml version="1.0" encoding="UTF-8"?>
<svg version="1.1" xmlns="http://www.w3.org/2000/svg" width="64" height="64">
<path d="M0 0 C1.8569751 -0.00472824 1.8569751 -0.00472824 3.75146484 -0.009552 C5.11295609 -0.00776222 6.47444701 -0.00571127 7.8359375 -0.00341797 C9.22216814 -0.00409106 10.60839867 -0.00506113 11.99462891 -0.00631714 C14.90333172 -0.00779387 17.81200387 -0.00564037 20.72070312 -0.00097656 C24.45690348 0.00472073 28.19303202 0.00144159 31.92922974 -0.00454903 C34.79273016 -0.00815532 37.65621343 -0.00701574 40.51971436 -0.00442123 C41.89768482 -0.00375215 43.27565682 -0.00457973 44.65362549 -0.00690079 C46.57637504 -0.00942839 48.49913002 -0.0048957 50.421875 0 C52.06615479 0.00119339 52.06615479 0.00119339 53.74365234 0.00241089 C56.2109375 0.12939453 56.2109375 0.12939453 57.2109375 1.12939453 C56.86946245 6.68315514 55.14327554 10.66612342 52.2734375 15.32080078 C51.67499023 16.32154884 51.67499023 16.32154884 51.06445312 17.34251404 C49.79078435 19.46572347 48.50102012 21.57862786 47.2109375 23.69189453 C46.37527662 25.08255487 45.54063284 26.47382694 44.70703125 27.86572266 C42.64687565 31.29556929 40.55600386 34.70533507 38.45166016 38.10821533 C37.20242523 40.14326131 35.97756194 42.19168283 34.75390625 44.2421875 C33.96959748 45.52672226 33.18447723 46.81076201 32.3984375 48.09423828 C32.04974609 48.69015274 31.70105469 49.2860672 31.34179688 49.90003967 C29.59546077 52.70517 28.65428222 53.98857615 25.44921875 55.0065918 C24.71058594 55.0471167 23.97195312 55.0876416 23.2109375 55.12939453 C17.58525712 47.03904998 12.64530245 38.55164632 7.6484375 30.06689453 C5.98182511 27.241873 4.31340275 24.41792564 2.64453125 21.59423828 C2.25112549 20.92682114 1.85771973 20.25940399 1.45239258 19.57176208 C-0.59172579 16.11294763 -2.68035633 12.6956463 -4.85546875 9.31689453 C-6.75961902 6.17793166 -7.44112227 4.71572325 -6.7890625 1.12939453 C-5.00989783 -0.64977014 -2.40592951 0.00174618 0 0 Z " fill="#A2B6CA" transform="translate(6.7890625,4.87060546875)"/>
</svg>
