<?xml version="1.0" encoding="UTF-8"?>
<svg version="1.1" xmlns="http://www.w3.org/2000/svg" width="64" height="64">
<path d="M0 0 C2.32592773 0.0925293 2.32592773 0.0925293 5 1 C6.93774414 3.36645508 6.93774414 3.36645508 8.78515625 6.51953125 C9.29248291 7.36917953 9.29248291 7.36917953 9.81005859 8.23599243 C10.90991788 10.08604458 11.98635214 11.94857248 13.0625 13.8125 C13.81359533 15.08881312 14.56612759 16.36428168 15.32006836 17.63891602 C16.83481543 20.20292036 18.34149077 22.77143609 19.84375 25.34277344 C21.77538162 28.63622685 23.76565753 31.88991454 25.78125 35.1328125 C26.34062256 36.03797607 26.89999512 36.94313965 27.47631836 37.87573242 C28.50938653 39.54419237 29.5489524 41.20865214 30.59594727 42.8684082 C34.78338536 49.72024209 34.78338536 49.72024209 34 54 C32.22083533 55.77916467 29.61686701 55.12764835 27.2109375 55.12939453 C25.9729541 55.13254669 24.7349707 55.13569885 23.45947266 55.13894653 C22.09798141 55.13715675 20.73649049 55.1351058 19.375 55.1328125 C17.98876936 55.13348559 16.60253883 55.13445566 15.21630859 55.13571167 C12.30760578 55.1371884 9.39893363 55.1350349 6.49023438 55.13037109 C2.75403402 55.12467381 -0.98209452 55.12795294 -4.71829224 55.13394356 C-7.58179266 55.13754985 -10.44527593 55.13641027 -13.30877686 55.13381577 C-14.68674732 55.13314668 -16.06471932 55.13397426 -17.44268799 55.13629532 C-19.36543754 55.13882292 -21.28819252 55.13429024 -23.2109375 55.12939453 C-24.85521729 55.12820114 -24.85521729 55.12820114 -26.53271484 55.12698364 C-29 55 -29 55 -30 54 C-29.65852495 48.44623939 -27.93233804 44.46327111 -25.0625 39.80859375 C-24.66353516 39.14142838 -24.26457031 38.474263 -23.85351562 37.78688049 C-22.57984685 35.66367106 -21.29008262 33.55076667 -20 31.4375 C-19.16433912 30.04683966 -18.32969534 28.65556759 -17.49609375 27.26367188 C-13.40599031 20.45959605 -9.22379729 13.71740241 -4.9375 7.03515625 C-4.55529297 6.43924179 -4.17308594 5.84332733 -3.77929688 5.22935486 C-1.13005389 1.13005389 -1.13005389 1.13005389 0 0 Z " fill="#A2B6CA" transform="translate(30,4)"/>
</svg>
