<?xml version="1.0" encoding="UTF-8"?>
<svg version="1.1" xmlns="http://www.w3.org/2000/svg" width="64" height="64">
<path d="M0 0 C6.35557558 4.64039252 11.2429567 9.70960946 13.11328125 17.54296875 C14.29159034 28.30337631 13.37560939 36.75803805 6.57421875 45.52734375 C2.22516691 50.35046286 -2.99365474 52.9699408 -8.88671875 55.54296875 C-8.88671875 57.19296875 -8.88671875 58.84296875 -8.88671875 60.54296875 C-11.89671027 60.97296754 -14.03120404 61.11523873 -16.62109375 59.3828125 C-19.1302012 57.04695295 -20.67696827 55.324766 -21.57421875 51.98046875 C-20.59854764 48.52127119 -18.54561749 46.86950515 -15.88671875 44.54296875 C-16.47839844 44.3728125 -17.07007812 44.20265625 -17.6796875 44.02734375 C-24.2379065 42.01601394 -28.72277775 39.96123733 -32.19921875 33.79296875 C-34.4451475 28.84275844 -34.90661846 24.63131674 -33.19140625 19.4375 C-30.99124034 14.51023768 -28.28291507 11.62965979 -23.88671875 8.54296875 C-18.48752018 6.74323589 -12.9511461 6.84184248 -7.57421875 8.66796875 C-2.91201772 11.92066714 0.65760552 15.98493414 2.11328125 21.54296875 C2.72823833 27.79503239 1.9042045 32.41921369 -1.88671875 37.54296875 C-4.12368747 39.52127299 -6.32695377 40.96772876 -8.88671875 42.54296875 C-8.39171875 44.52296875 -8.39171875 44.52296875 -7.88671875 46.54296875 C-1.33866432 42.95107482 2.36763195 39.64524459 5.36328125 32.60546875 C6.98501012 25.98340919 6.24344781 20.51021512 3.11328125 14.54296875 C-0.60533486 9.04731485 -4.52846945 5.4965686 -11.171875 4.04296875 C-18.18350952 3.00260258 -24.098902 3.75542982 -29.8984375 8.0234375 C-35.23987207 12.91695303 -37.90721059 18.29682193 -38.26171875 25.54296875 C-38.01796528 31.1825376 -36.25043299 35.91408785 -32.63671875 40.23046875 C-30.88671875 42.54296875 -30.88671875 42.54296875 -31.13671875 45.35546875 C-31.38421875 46.07734375 -31.63171875 46.79921875 -31.88671875 47.54296875 C-35.63169329 47.3289702 -36.80828798 46.62139952 -39.51171875 43.91796875 C-45.05297294 37.18664654 -45.58506269 29.90399384 -45.296875 21.49609375 C-44.46540968 13.48235176 -40.747745 7.37578134 -34.8046875 2.015625 C-25.06818925 -5.46026062 -10.60929306 -6.36557584 0 0 Z M-17.9296875 13.5390625 C-18.99123047 14.25255859 -18.99123047 14.25255859 -20.07421875 14.98046875 C-20.78964844 15.45355469 -21.50507813 15.92664063 -22.2421875 16.4140625 C-22.78488281 16.78660156 -23.32757812 17.15914062 -23.88671875 17.54296875 C-23.55671875 18.53296875 -23.22671875 19.52296875 -22.88671875 20.54296875 C-20.71797623 20.03692883 -18.88704248 19.54313062 -16.88671875 18.54296875 C-16.88671875 24.81296875 -16.88671875 31.08296875 -16.88671875 37.54296875 C-15.56671875 37.54296875 -14.24671875 37.54296875 -12.88671875 37.54296875 C-12.88671875 29.62296875 -12.88671875 21.70296875 -12.88671875 13.54296875 C-15.77235448 12.19219784 -15.77235448 12.19219784 -17.9296875 13.5390625 Z " fill="#A2B6CB" transform="translate(47.88671875,3.45703125)"/>
<path d="M0 0 C4.66220103 3.25269839 8.23182427 7.31696539 9.6875 12.875 C10.30733451 19.17665084 9.43540988 23.68558632 5.6875 28.875 C1.71346885 33.03434867 -2.41171414 34.61585592 -8.109375 34.9453125 C-13.90636981 34.76030203 -18.28241292 33.01400836 -22.3125 28.875 C-25.73777129 23.83783634 -27.46849806 18.94988776 -26.3125 12.875 C-24.36276862 6.97103813 -21.35528651 3.41567989 -16.3125 -0.125 C-10.91330143 -1.92473286 -5.37692735 -1.82612627 0 0 Z M-10.35546875 4.87109375 C-11.41701172 5.58458984 -11.41701172 5.58458984 -12.5 6.3125 C-13.21542969 6.78558594 -13.93085938 7.25867188 -14.66796875 7.74609375 C-15.21066406 8.11863281 -15.75335938 8.49117187 -16.3125 8.875 C-15.9825 9.865 -15.6525 10.855 -15.3125 11.875 C-13.14375748 11.36896008 -11.31282373 10.87516187 -9.3125 9.875 C-9.3125 16.145 -9.3125 22.415 -9.3125 28.875 C-7.9925 28.875 -6.6725 28.875 -5.3125 28.875 C-5.3125 20.955 -5.3125 13.035 -5.3125 4.875 C-8.19813573 3.52422909 -8.19813573 3.52422909 -10.35546875 4.87109375 Z " fill="#42505E" transform="translate(40.3125,12.125)"/>
</svg>
